<svg width="1200" height="800" xmlns="http://www.w3.org/2000/svg">
  <defs>
    <!-- 和紙のテクスチャパターン -->
    <pattern id="washiTexture" x="0" y="0" width="100" height="100" patternUnits="userSpaceOnUse">
      <rect width="100" height="100" fill="#F3F3F1" opacity="0.95"/>
      <!-- 繊維の質感 -->
      <path d="M0,20 Q20,15 40,20 T80,25 L100,22" stroke="#E8E6E1" stroke-width="0.5" fill="none" opacity="0.7"/>
      <path d="M0,45 Q25,40 50,45 T100,50" stroke="#E8E6E1" stroke-width="0.3" fill="none" opacity="0.6"/>
      <path d="M0,70 Q30,65 60,70 T100,75" stroke="#E8E6E1" stroke-width="0.4" fill="none" opacity="0.5"/>
      <path d="M20,0 Q25,30 20,60 T25,100" stroke="#E8E6E1" stroke-width="0.3" fill="none" opacity="0.6"/>
      <path d="M60,0 Q65,25 60,50 T65,100" stroke="#E8E6E1" stroke-width="0.4" fill="none" opacity="0.5"/>
      <!-- 紙の粒子感 -->
      <circle cx="15" cy="35" r="0.5" fill="#DDD9D0" opacity="0.8"/>
      <circle cx="75" cy="60" r="0.3" fill="#DDD9D0" opacity="0.6"/>
      <circle cx="45" cy="80" r="0.4" fill="#DDD9D0" opacity="0.7"/>
      <circle cx="85" cy="25" r="0.2" fill="#DDD9D0" opacity="0.5"/>
      <!-- 微細な陰影 -->
      <ellipse cx="30" cy="15" rx="8" ry="3" fill="#E8E6E1" opacity="0.3" transform="rotate(15 30 15)"/>
      <ellipse cx="70" cy="85" rx="6" ry="2" fill="#E8E6E1" opacity="0.4" transform="rotate(-20 70 85)"/>
    </pattern>
    
    <!-- グラデーション効果 -->
    <radialGradient id="washiGradient" cx="50%" cy="30%" r="70%">
      <stop offset="0%" style="stop-color:#F8F8F6;stop-opacity:0.8" />
      <stop offset="50%" style="stop-color:#F3F3F1;stop-opacity:0.6" />
      <stop offset="100%" style="stop-color:#EAE8E3;stop-opacity:0.4" />
    </radialGradient>
  </defs>
  
  <!-- 和紙のベース -->
  <rect width="100%" height="100%" fill="url(#washiTexture)"/>
  
  <!-- グラデーション効果のオーバーレイ -->
  <rect width="100%" height="100%" fill="url(#washiGradient)"/>
  
  <!-- 山吹色の微細な装飾 -->
  <g opacity="0.15">
    <path d="M100,200 Q300,180 500,200 T900,220 L1200,215" stroke="#F8B500" stroke-width="1" fill="none"/>
    <path d="M0,600 Q200,580 400,600 T800,620 L1200,615" stroke="#F8B500" stroke-width="0.8" fill="none"/>
  </g>
</svg>